<svg width="196" height="151" viewBox="0 0 196 151" fill="none" xmlns="http://www.w3.org/2000/svg">
<g clip-path="url(#clip0_175_4375)">
<mask id="mask0_175_4375" style="mask-type:luminance" maskUnits="userSpaceOnUse" x="5" y="9" width="57" height="57">
<path d="M32.9999 9.82043C25.5786 9.87529 18.4816 12.8593 13.2631 18.119C8.04452 23.3787 5.1299 30.4853 5.15742 37.8825C5.18494 45.2798 8.15237 52.3646 13.4099 57.5856C18.6674 62.8066 25.7864 65.738 33.2079 65.738C40.6295 65.738 47.7486 62.8066 53.0061 57.5856C58.2636 52.3646 61.2311 45.2798 61.2586 37.8825C61.2861 30.4853 58.3714 23.3787 53.1528 18.119C47.9343 12.8593 40.8373 9.87529 33.4159 9.82043H32.9999Z" fill="white"/>
</mask>
<g mask="url(#mask0_175_4375)">
<path d="M61.244 9.82043H5.16016V65.7035H61.244V9.82043Z" fill="url(#paint0_linear_175_4375)"/>
</g>
<mask id="mask1_175_4375" style="mask-type:luminance" maskUnits="userSpaceOnUse" x="42" y="69" width="53" height="76">
<path d="M66.5294 70.5458L43.6125 93.3878C42.6216 94.3789 42.0647 95.7207 42.0635 97.1199V132.587C42.0637 133.818 42.5026 135.009 43.3018 135.948C44.101 136.887 45.2087 137.512 46.4274 137.713L88.8001 144.648C89.5458 144.769 90.309 144.728 91.037 144.526C91.765 144.324 92.4403 143.967 93.0162 143.48C93.5921 142.992 94.0548 142.386 94.3722 141.702C94.6897 141.019 94.8542 140.275 94.8546 139.522V96.7934C94.854 95.6024 94.3797 94.4603 93.5357 93.6172L70.3887 70.5458C69.8761 70.0372 69.1823 69.7517 68.4591 69.7517C67.7358 69.7517 67.042 70.0372 66.5294 70.5458Z" fill="white"/>
</mask>
<g mask="url(#mask1_175_4375)">
<path d="M94.8546 69.7517H42.0635V145.159H94.8546V69.7517Z" fill="url(#paint1_linear_175_4375)"/>
</g>
<mask id="mask2_175_4375" style="mask-type:luminance" maskUnits="userSpaceOnUse" x="96" y="95" width="65" height="51">
<path d="M100.659 95.9206C99.5789 95.9206 98.5432 96.3482 97.7796 97.1093C97.016 97.8704 96.5869 98.9027 96.5869 99.979V141.049C96.5864 141.624 96.7084 142.192 96.945 142.717C97.1816 143.241 97.5272 143.709 97.9591 144.091C98.3909 144.472 98.8991 144.757 99.45 144.928C100.001 145.099 100.582 145.151 101.154 145.081L157.318 137.431C158.3 137.305 159.201 136.825 159.853 136.083C160.505 135.34 160.863 134.386 160.859 133.399V99.979C160.859 99.4461 160.753 98.9183 160.549 98.4259C160.344 97.9336 160.044 97.4862 159.666 97.1093C159.288 96.7324 158.839 96.4335 158.345 96.2295C157.851 96.0256 157.322 95.9206 156.787 95.9206H100.659Z" fill="white"/>
</mask>
<g mask="url(#mask2_175_4375)">
<path d="M160.898 95.9203H96.582V145.38H160.898V95.9203Z" fill="url(#paint2_linear_175_4375)"/>
</g>
<mask id="mask3_175_4375" style="mask-type:luminance" maskUnits="userSpaceOnUse" x="35" y="56" width="127" height="39">
<path d="M65.7495 58.53L63.2976 60.9739L36.3356 87.8656C35.741 88.4608 35.4072 89.2666 35.4072 90.1065C35.4072 90.9465 35.741 91.7523 36.3356 92.3475L36.9906 93.0004C37.5897 93.5962 38.4015 93.9309 39.2478 93.9309C40.0942 93.9309 40.9059 93.5962 41.5049 93.0004L65.8912 68.6938C66.2299 68.3558 66.6321 68.0877 67.0748 67.9047C67.5175 67.7218 67.9922 67.6276 68.4715 67.6276C68.9508 67.6276 69.4253 67.7218 69.868 67.9047C70.3108 68.0877 70.713 68.3558 71.0517 68.6938L95.2608 92.8151C95.6572 93.2095 96.128 93.5217 96.646 93.7337C97.1641 93.9457 97.7192 94.0533 98.2793 94.0503H158.373C159.049 94.052 159.71 93.8437 160.262 93.4544C160.814 93.0651 161.231 92.514 161.455 91.8778C161.679 91.2415 161.698 90.5516 161.511 89.9037C161.323 89.2559 160.938 88.6823 160.409 88.2626L128.844 63.1531C127.718 62.2566 126.356 61.7022 124.923 61.5562L72.2732 56.2626C72.0076 56.2626 71.7332 56.2626 71.4677 56.2626C70.4094 56.2613 69.3613 56.468 68.3832 56.8707C67.4051 57.2734 66.5162 57.8642 65.7673 58.6094" fill="white"/>
</mask>
<g mask="url(#mask3_175_4375)">
<path d="M68.9001 -0.0154908L18.207 84.143L128.937 150.406L179.63 66.248L68.9001 -0.0154908Z" fill="url(#paint3_linear_175_4375)"/>
</g>
<mask id="mask4_175_4375" style="mask-type:luminance" maskUnits="userSpaceOnUse" x="0" y="111" width="43" height="27">
<path d="M26.5969 117.978C23.5162 117.058 20.2624 116.868 17.0952 117.425C13.928 117.981 10.9351 119.267 8.3553 121.181C5.77553 123.095 3.68037 125.583 2.23696 128.448C0.79355 131.312 0.0419029 134.474 0.0419922 137.679H42.6537C41.9397 137.036 41.369 136.25 40.9787 135.373C40.5884 134.496 40.387 133.548 40.3877 132.588V111.528C35.259 112.278 30.4639 114.511 26.5969 117.951" fill="white"/>
</mask>
<g mask="url(#mask4_175_4375)">
<path d="M42.6098 111.555H-0.00195312V137.679H42.6098V111.555Z" fill="url(#paint4_linear_175_4375)"/>
</g>
<mask id="mask5_175_4375" style="mask-type:luminance" maskUnits="userSpaceOnUse" x="17" y="9" width="160" height="108">
<path d="M96.2356 9.82019C82.5366 9.86373 69.0844 13.4575 57.1999 20.2486C61.0846 25.5314 63.1042 31.948 62.9428 38.4958C62.7815 45.0436 60.4484 51.3538 56.3082 56.4401C52.168 61.5263 46.454 65.1023 40.0589 66.609C33.6639 68.1157 26.9482 67.4683 20.9614 64.7681C15.6531 81.2824 15.9298 99.0769 21.7492 115.419C23.2422 115.494 24.7244 115.712 26.175 116.072C30.1723 112.772 35.0056 110.635 40.1429 109.896H40.3906V97.121C40.4001 96.5521 40.4774 95.9865 40.6208 95.4358C39.7822 95.6872 38.8906 95.7058 38.0421 95.4897C37.1937 95.2736 36.4204 94.831 35.8056 94.2094L35.1506 93.5566C34.2327 92.6416 33.7171 91.4007 33.7171 90.1069C33.7171 88.813 34.2327 87.5722 35.1506 86.6572L62.1303 59.7656L64.5822 57.3217C65.4881 56.4169 66.5643 55.6994 67.7491 55.2104C68.9339 54.7213 70.204 54.4704 71.4864 54.4719C71.8174 54.4688 72.1484 54.4836 72.4778 54.5161L125.127 59.8097C126.887 59.9911 128.558 60.6707 129.943 61.7683L161.507 86.8866C162.186 87.4219 162.711 88.1247 163.032 88.9252C163.353 89.7257 163.459 90.596 163.338 91.4497C163.217 92.3033 162.874 93.1106 162.344 93.7913C161.813 94.472 161.113 95.0025 160.313 95.33C161.039 95.8627 161.63 96.5574 162.039 97.3586C162.448 98.1599 162.663 99.0453 162.667 99.9442V112.296C162.931 112.298 163.191 112.358 163.428 112.472C165.405 113.46 167.261 114.671 168.96 116.081C169.766 115.881 170.581 115.725 171.404 115.613C175.68 103.696 177.027 90.9309 175.331 78.3879C173.635 65.845 168.945 53.8904 161.656 43.5273C154.366 33.1642 144.689 24.6948 133.437 18.8298C122.185 12.9647 109.686 9.87514 96.988 9.82019H96.2356Z" fill="white"/>
</mask>
<g mask="url(#mask5_175_4375)">
<path d="M175.998 9.82019H17.1729V116.09H175.998V9.82019Z" fill="url(#paint5_linear_175_4375)"/>
</g>
<mask id="mask6_175_4375" style="mask-type:luminance" maskUnits="userSpaceOnUse" x="160" y="114" width="36" height="24">
<path d="M162.62 133.4C162.616 134.209 162.441 135.008 162.107 135.745C161.773 136.482 161.288 137.141 160.682 137.679H195.035C195.035 134.474 194.283 131.313 192.84 128.448C191.396 125.584 189.301 123.095 186.721 121.181C184.142 119.267 181.149 117.981 177.982 117.425C174.814 116.869 171.561 117.058 168.48 117.978C166.713 116.4 164.743 115.064 162.62 114.008V133.4Z" fill="white"/>
</mask>
<g mask="url(#mask6_175_4375)">
<path d="M195.035 114.008H160.682V137.679H195.035V114.008Z" fill="url(#paint6_linear_175_4375)"/>
</g>
</g>
<defs>
<linearGradient id="paint0_linear_175_4375" x1="30.0067" y1="65.7744" x2="30.0067" y2="9.87373" gradientUnits="userSpaceOnUse">
<stop stop-color="#F7A521"/>
<stop offset="1" stop-color="#FFDD08"/>
</linearGradient>
<linearGradient id="paint1_linear_175_4375" x1="64.5909" y1="57.345" x2="64.5909" y2="142.652" gradientUnits="userSpaceOnUse">
<stop stop-color="#8FC045"/>
<stop offset="0.12" stop-color="#8ABD44"/>
<stop offset="0.26" stop-color="#7AB442"/>
<stop offset="0.42" stop-color="#61A63F"/>
<stop offset="0.52" stop-color="#4F9C3C"/>
<stop offset="0.61" stop-color="#3E903B"/>
<stop offset="0.79" stop-color="#107139"/>
<stop offset="0.83" stop-color="#056939"/>
<stop offset="1" stop-color="#056939"/>
</linearGradient>
<linearGradient id="paint2_linear_175_4375" x1="96.582" y1="113.264" x2="160.898" y2="113.264" gradientUnits="userSpaceOnUse">
<stop stop-color="#EB5D25"/>
<stop offset="1" stop-color="#BE202E"/>
</linearGradient>
<linearGradient id="paint3_linear_175_4375" x1="181.065" y1="113.474" x2="28.0894" y2="21.3085" gradientUnits="userSpaceOnUse">
<stop stop-color="#F49523"/>
<stop offset="0.33" stop-color="#F49523"/>
<stop offset="0.47" stop-color="#F9B318"/>
<stop offset="0.61" stop-color="#FCCA0F"/>
<stop offset="0.74" stop-color="#FED80A"/>
<stop offset="0.85" stop-color="#FFDD08"/>
<stop offset="1" stop-color="#FFDD08"/>
</linearGradient>
<linearGradient id="paint4_linear_175_4375" x1="-0.00195312" y1="119.937" x2="42.6098" y2="119.937" gradientUnits="userSpaceOnUse">
<stop stop-color="#8FC045"/>
<stop offset="1" stop-color="#056939"/>
</linearGradient>
<linearGradient id="paint5_linear_175_4375" x1="104.963" y1="140.491" x2="104.963" y2="9.09434" gradientUnits="userSpaceOnUse">
<stop stop-color="#30358C"/>
<stop offset="0.24" stop-color="#30358C"/>
<stop offset="1" stop-color="#29ABE3"/>
</linearGradient>
<linearGradient id="paint6_linear_175_4375" x1="160.682" y1="129.769" x2="195.035" y2="129.769" gradientUnits="userSpaceOnUse">
<stop stop-color="#056939"/>
<stop offset="1" stop-color="#8FC045"/>
</linearGradient>
<clipPath id="clip0_175_4375">
<rect width="195.037" height="150.41" fill="white"/>
</clipPath>
</defs>
</svg>
