<svg width="46" height="24" viewBox="0 0 46 24" fill="none" xmlns="http://www.w3.org/2000/svg">
<path d="M4.64418 0C2.0838 0 0 2.0838 0 4.64418V18.6557L5.37031 24H18.7279V21.7124L20.8479 24H45.4361V0H4.64418ZM44.3613 22.9219H21.3179L17.6531 18.968V22.9219H5.65958L1.07477 18.3172V4.64418C1.07477 2.67542 2.6787 1.07477 4.64418 1.07477H44.3613V22.9219Z" fill="white"/>
<path fill-rule="evenodd" clip-rule="evenodd" d="M39.6319 17.4293V6.46142H36.8872L36.8875 17.4293H39.6319ZM36.0798 9.19929V6.46142H26.5933V9.19929H30.0707V17.4293H32.8119V9.19929H36.0798Z" fill="white"/>
<path d="M12.759 14.6853V11.9442H15.5001V17.4265H8.27257L5.53142 14.6853V9.19929C5.53142 7.53619 6.60948 6.4586 8.27257 6.4586H15.5001V9.19975H8.27257V13.4574L9.55016 14.6853H12.759Z" fill="white"/>
<path d="M19.1356 6.46142H25.7227V9.20257H19.1163V13.4574L20.3386 14.6849H25.7227V17.426H19.1163L16.3752 14.6849V9.22189C16.3752 7.69733 17.6111 6.46142 19.1356 6.46142Z" fill="white"/>
</svg>
